<?xml version="1.0" encoding="UTF-8" standalone="no"?>
<!DOCTYPE svg PUBLIC "-//W3C//DTD SVG 1.1//EN"
 "http://www.w3.org/Graphics/SVG/1.1/DTD/svg11.dtd">
<!-- Generated by graphviz version 2.38.0 (20140413.2041)
 -->
<!-- Title: G Pages: 1 -->
<svg width="294pt" height="221pt"
 viewBox="54.00 54.00 240.00 167.00" xmlns="http://www.w3.org/2000/svg" xmlns:xlink="http://www.w3.org/1999/xlink">
<g id="graph0" class="graph" transform="scale(1 1) rotate(0) translate(58 163)">
<title>G</title>
<polygon fill="white" stroke="none" points="-4,4 -4,-109 182,-109 182,4 -4,4"/>
<!-- n1 -->
<g id="node1" class="node"><title>n1</title>
<path fill="lightgrey" stroke="black" d="M171.333,-20C171.333,-20 152.667,-20 152.667,-20 149.333,-20 146,-16.6667 146,-13.3333 146,-13.3333 146,-6.66667 146,-6.66667 146,-3.33333 149.333,-0 152.667,-0 152.667,-0 171.333,-0 171.333,-0 174.667,-0 178,-3.33333 178,-6.66667 178,-6.66667 178,-13.3333 178,-13.3333 178,-16.6667 174.667,-20 171.333,-20"/>
<text text-anchor="middle" x="162" y="-7.2" font-family="Helvetica,sans-Serif" font-size="11.00">bar</text>
</g>
<!-- n2 -->
<g id="node2" class="node"><title>n2</title>
<path fill="#b3e2cd" stroke="#b3e2cd" d="M51.3333,-20C51.3333,-20 6.66667,-20 6.66667,-20 3.33333,-20 3.55271e-15,-16.6667 3.55271e-15,-13.3333 3.55271e-15,-13.3333 3.55271e-15,-6.66667 3.55271e-15,-6.66667 3.55271e-15,-3.33333 3.33333,-0 6.66667,-0 6.66667,-0 51.3333,-0 51.3333,-0 54.6667,-0 58,-3.33333 58,-6.66667 58,-6.66667 58,-13.3333 58,-13.3333 58,-16.6667 54.6667,-20 51.3333,-20"/>
<text text-anchor="middle" x="29" y="-7.2" font-family="Helvetica,sans-Serif" font-size="11.00">foo:table</text>
</g>
<!-- n2&#45;&gt;n1 -->
<g id="edge1" class="edge"><title>n2&#45;&gt;n1</title>
<path fill="none" stroke="black" d="M58.1028,-10C81.2324,-10 113.718,-10 135.965,-10"/>
<polygon fill="black" stroke="black" points="135.978,-13.5001 145.978,-10 135.978,-6.5001 135.978,-13.5001"/>
</g>
<!-- n3 -->
<g id="node3" class="node"><title>n3</title>
<path fill="lightgrey" stroke="black" d="M41.3333,-105C41.3333,-105 16.6667,-105 16.6667,-105 13.3333,-105 10,-101.667 10,-98.3333 10,-98.3333 10,-91.6667 10,-91.6667 10,-88.3333 13.3333,-85 16.6667,-85 16.6667,-85 41.3333,-85 41.3333,-85 44.6667,-85 48,-88.3333 48,-91.6667 48,-91.6667 48,-98.3333 48,-98.3333 48,-101.667 44.6667,-105 41.3333,-105"/>
<text text-anchor="middle" x="29" y="-92.2" font-family="Helvetica,sans-Serif" font-size="11.00">foo2</text>
</g>
<!-- n4 -->
<g id="node4" class="node"><title>n4</title>
<path fill="#fdcdac" stroke="#fdcdac" d="M171.333,-105C171.333,-105 152.667,-105 152.667,-105 149.333,-105 146,-101.667 146,-98.3333 146,-98.3333 146,-91.6667 146,-91.6667 146,-88.3333 149.333,-85 152.667,-85 152.667,-85 171.333,-85 171.333,-85 174.667,-85 178,-88.3333 178,-91.6667 178,-91.6667 178,-98.3333 178,-98.3333 178,-101.667 174.667,-105 171.333,-105"/>
<text text-anchor="middle" x="162" y="-92.2" font-family="Helvetica,sans-Serif" font-size="11.00">bar</text>
</g>
<!-- n3&#45;&gt;n4 -->
<g id="edge2" class="edge"><title>n3&#45;&gt;n4</title>
<path fill="none" stroke="black" d="M48.215,-95C70.9756,-95 110.047,-95 135.702,-95"/>
<polygon fill="black" stroke="black" points="135.789,-98.5001 145.789,-95 135.789,-91.5001 135.789,-98.5001"/>
<text text-anchor="middle" x="102" y="-97.8" font-family="Helvetica,sans-Serif" font-size="9.00">test</text>
</g>
<!-- n4&#45;&gt;n3 -->
<g id="edge3" class="edge"><title>n4&#45;&gt;n3</title>
<path fill="none" stroke="black" d="M145.982,-86.3248C138.203,-82.326 128.388,-78.0247 119,-76 98.4721,-71.5728 75.269,-76.8644 57.7022,-82.9764"/>
<polygon fill="black" stroke="black" points="56.1981,-79.8028 48.0732,-86.6026 58.6652,-86.3537 56.1981,-79.8028"/>
<text text-anchor="middle" x="102" y="-78.8" font-family="Helvetica,sans-Serif" font-size="9.00">QPS 4.5</text>
</g>
</g>
</svg>
