<?xml version="1.0" encoding="UTF-8" standalone="no"?>
<!DOCTYPE svg PUBLIC "-//W3C//DTD SVG 1.1//EN"
 "http://www.w3.org/Graphics/SVG/1.1/DTD/svg11.dtd">
<!-- Generated by graphviz version 2.38.0 (20140413.2041)
 -->
<!-- Title: G Pages: 1 -->
<svg width="198pt" height="57pt"
 viewBox="14.40 14.40 183.40 42.90" xmlns="http://www.w3.org/2000/svg" xmlns:xlink="http://www.w3.org/1999/xlink">
<g id="graph0" class="graph" transform="scale(1 1) rotate(0) translate(18.4 38.9)">
<title>G</title>
<polygon fill="white" stroke="none" points="-4,4 -4,-24.5 165,-24.5 165,4 -4,4"/>
<!-- a -->
<g id="node1" class="node"><title>a</title>
<path fill="lightgrey" stroke="black" d="M26.6667,-19C26.6667,-19 6.33333,-19 6.33333,-19 3.16667,-19 0,-15.8333 0,-12.6667 0,-12.6667 0,-6.33333 0,-6.33333 0,-3.16667 3.16667,-0 6.33333,-0 6.33333,-0 26.6667,-0 26.6667,-0 29.8333,-0 33,-3.16667 33,-6.33333 33,-6.33333 33,-12.6667 33,-12.6667 33,-15.8333 29.8333,-19 26.6667,-19"/>
<text text-anchor="middle" x="16.5" y="-7" font-family="Helvetica,sans-Serif" font-size="10.00">Foo</text>
</g>
<!-- b -->
<g id="node2" class="node"><title>b</title>
<path fill="lightgrey" stroke="black" d="M109.667,-19C109.667,-19 100.333,-19 100.333,-19 97.1667,-19 94,-15.8333 94,-12.6667 94,-12.6667 94,-6.33333 94,-6.33333 94,-3.16667 97.1667,-0 100.333,-0 100.333,-0 109.667,-0 109.667,-0 112.833,-0 116,-3.16667 116,-6.33333 116,-6.33333 116,-12.6667 116,-12.6667 116,-15.8333 112.833,-19 109.667,-19"/>
<text text-anchor="middle" x="105" y="-7" font-family="Helvetica,sans-Serif" font-size="10.00">b</text>
</g>
<!-- a&#45;&gt;b -->
<g id="edge1" class="edge"><title>a&#45;&gt;b</title>
<path fill="none" stroke="blue" d="M33.3654,-9.5C47.4944,-9.5 68.247,-9.5 83.605,-9.5"/>
<polygon fill="blue" stroke="blue" points="83.6628,-13.0001 93.6627,-9.5 83.6627,-6.0001 83.6628,-13.0001"/>
<text text-anchor="middle" x="63.5" y="-12.5" font-family="Helvetica,sans-Serif" font-size="10.00">Test 123</text>
</g>
<!-- d -->
<g id="node3" class="node"><title>d</title>
<path fill="lightgrey" stroke="black" d="M154.667,-19C154.667,-19 145.333,-19 145.333,-19 142.167,-19 139,-15.8333 139,-12.6667 139,-12.6667 139,-6.33333 139,-6.33333 139,-3.16667 142.167,-0 145.333,-0 145.333,-0 154.667,-0 154.667,-0 157.833,-0 161,-3.16667 161,-6.33333 161,-6.33333 161,-12.6667 161,-12.6667 161,-15.8333 157.833,-19 154.667,-19"/>
<text text-anchor="middle" x="150" y="-7" font-family="Helvetica,sans-Serif" font-size="10.00">d</text>
</g>
<!-- b&#45;&gt;d -->
<g id="edge2" class="edge"><title>b&#45;&gt;d</title>
<path fill="none" stroke="black" stroke-dasharray="1,5" d="M116.409,-9.5C120.161,-9.5 124.533,-9.5 128.833,-9.5"/>
<polygon fill="black" stroke="black" points="128.983,-13.0001 138.983,-9.5 128.983,-6.0001 128.983,-13.0001"/>
</g>
</g>
</svg>
