<?xml version="1.0" encoding="UTF-8" standalone="no"?>
<!DOCTYPE svg PUBLIC "-//W3C//DTD SVG 1.1//EN"
 "http://www.w3.org/Graphics/SVG/1.1/DTD/svg11.dtd">
<!-- Generated by graphviz version 2.40.1 (20161225.0304)
 -->
<!-- Title: G Pages: 1 -->
<svg width="299pt" height="235pt"
 viewBox="54.00 54.00 245.00 181.00" xmlns="http://www.w3.org/2000/svg" xmlns:xlink="http://www.w3.org/1999/xlink">
<g id="graph0" class="graph" transform="scale(1 1) rotate(0) translate(58 177)">
<title>G</title>
<polygon fill="#ffffff" stroke="transparent" points="-4,4 -4,-123 187,-123 187,4 -4,4"/>
<!-- n1 -->
<g id="node1" class="node">
<title>n1</title>
<path fill="#d3d3d3" stroke="#000000" d="M173.8333,-26C173.8333,-26 155.1667,-26 155.1667,-26 151.8333,-26 148.5,-22.6667 148.5,-19.3333 148.5,-19.3333 148.5,-12.6667 148.5,-12.6667 148.5,-9.3333 151.8333,-6 155.1667,-6 155.1667,-6 173.8333,-6 173.8333,-6 177.1667,-6 180.5,-9.3333 180.5,-12.6667 180.5,-12.6667 180.5,-19.3333 180.5,-19.3333 180.5,-22.6667 177.1667,-26 173.8333,-26"/>
<text text-anchor="middle" x="164.5" y="-13.2" font-family="Helvetica,sans-Serif" font-size="11.00" fill="#000000">bar</text>
</g>
<!-- n2 -->
<g id="node2" class="node">
<title>n2</title>
<path fill="#b3e2cd" stroke="#b3e2cd" d="M47.3333,-32C47.3333,-32 10.6667,-32 10.6667,-32 5.3333,-32 0,-26.6667 0,-21.3333 0,-21.3333 0,-10.6667 0,-10.6667 0,-5.3333 5.3333,0 10.6667,0 10.6667,0 47.3333,0 47.3333,0 52.6667,0 58,-5.3333 58,-10.6667 58,-10.6667 58,-21.3333 58,-21.3333 58,-26.6667 52.6667,-32 47.3333,-32"/>
<text text-anchor="middle" x="29" y="-19.2" font-family="Helvetica,sans-Serif" font-size="11.00" fill="#000000">db</text>
<text text-anchor="middle" x="29" y="-7.2" font-family="Helvetica,sans-Serif" font-size="11.00" fill="#000000">foo:table</text>
</g>
<!-- n2&#45;&gt;n1 -->
<g id="edge1" class="edge">
<title>n2&#45;&gt;n1</title>
<path fill="none" stroke="#000000" d="M58.0681,-16C81.8325,-16 115.1458,-16 138.1425,-16"/>
<polygon fill="#000000" stroke="#000000" points="138.2135,-19.5001 148.2134,-16 138.2134,-12.5001 138.2135,-19.5001"/>
</g>
<!-- n3 -->
<g id="node3" class="node">
<title>n3</title>
<path fill="#d3d3d3" stroke="#000000" d="M41.3333,-113C41.3333,-113 16.6667,-113 16.6667,-113 13.3333,-113 10,-109.6667 10,-106.3333 10,-106.3333 10,-99.6667 10,-99.6667 10,-96.3333 13.3333,-93 16.6667,-93 16.6667,-93 41.3333,-93 41.3333,-93 44.6667,-93 48,-96.3333 48,-99.6667 48,-99.6667 48,-106.3333 48,-106.3333 48,-109.6667 44.6667,-113 41.3333,-113"/>
<text text-anchor="middle" x="29" y="-100.2" font-family="Helvetica,sans-Serif" font-size="11.00" fill="#000000">foo2</text>
</g>
<!-- n4 -->
<g id="node4" class="node">
<title>n4</title>
<path fill="#fdcdac" stroke="#fdcdac" d="M172.3333,-119C172.3333,-119 156.6667,-119 156.6667,-119 151.3333,-119 146,-113.6667 146,-108.3333 146,-108.3333 146,-97.6667 146,-97.6667 146,-92.3333 151.3333,-87 156.6667,-87 156.6667,-87 172.3333,-87 172.3333,-87 177.6667,-87 183,-92.3333 183,-97.6667 183,-97.6667 183,-108.3333 183,-108.3333 183,-113.6667 177.6667,-119 172.3333,-119"/>
<text text-anchor="middle" x="164.5" y="-106.2" font-family="Helvetica,sans-Serif" font-size="11.00" fill="#000000">web</text>
<text text-anchor="middle" x="164.5" y="-94.2" font-family="Helvetica,sans-Serif" font-size="11.00" fill="#000000">bar</text>
</g>
<!-- n3&#45;&gt;n4 -->
<g id="edge2" class="edge">
<title>n3&#45;&gt;n4</title>
<path fill="none" stroke="#000000" d="M48.1265,-103C70.952,-103 109.3405,-103 135.746,-103"/>
<polygon fill="#000000" stroke="#000000" points="135.9058,-106.5001 145.9058,-103 135.9057,-99.5001 135.9058,-106.5001"/>
<text text-anchor="middle" x="102" y="-105.8" font-family="Helvetica,sans-Serif" font-size="9.00" fill="#000000">test</text>
</g>
<!-- n4&#45;&gt;n3 -->
<g id="edge3" class="edge">
<title>n4&#45;&gt;n3</title>
<path fill="none" stroke="#000000" d="M145.9919,-93.3148C137.9319,-89.6185 128.2328,-85.8503 119,-84 104.1835,-81.0307 99.9095,-81.5396 85,-84 75.8992,-85.5018 66.2889,-88.2897 57.6477,-91.276"/>
<polygon fill="#000000" stroke="#000000" points="56.2164,-88.073 48.0374,-94.8075 58.6309,-94.6434 56.2164,-88.073"/>
<text text-anchor="middle" x="102" y="-86.8" font-family="Helvetica,sans-Serif" font-size="9.00" fill="#000000">QPS 4.5</text>
</g>
</g>
</svg>
